<?xml version="1.0" encoding="UTF-8"?>
<svg width="512" height="512" viewBox="0 0 512 512" fill="none" xmlns="http://www.w3.org/2000/svg">
  <rect width="512" height="512" fill="#4F46E5"/>
  <circle cx="256" cy="256" r="160" fill="white"/>
  <path d="M256 156C201.36 156 156 201.36 156 256C156 310.64 201.36 356 256 356C310.64 356 356 310.64 356 256C356 201.36 310.64 156 256 156ZM256 326C217.84 326 186 294.16 186 256C186 217.84 217.84 186 256 186C294.16 186 326 217.84 326 256C326 294.16 294.16 326 256 326Z" fill="#4F46E5"/>
  <circle cx="256" cy="256" r="40" fill="#4F46E5"/>
</svg> 